<svg xmlns="http://www.w3.org/2000/svg" xmlns:xlink="http://www.w3.org/1999/xlink" contentStyleType="text/css" data-diagram-type="CLASS" height="800px" preserveAspectRatio="none" style="width:1560px;height:800px;background:#FFFFFF;" version="1.1" viewBox="0 0 1560 800" width="1560px" zoomAndPan="magnify"><defs/><g><!--class Person--><g class="entity" data-entity="Person" data-source-line="2" data-uid="ent0002" id="entity_Person"><rect fill="#F1F1F1" height="162.0781" rx="2.5" ry="2.5" style="stroke:#181818;stroke-width:0.5;" width="176.8691" x="417.5" y="335.5"/><ellipse cx="477.9126" cy="351.5" fill="#ADD1B2" rx="11" ry="11" style="stroke:#181818;stroke-width:1;"/><path d="M480.8813,357.1406 Q480.3032,357.4375 479.6626,357.5781 Q479.022,357.7344 478.3188,357.7344 Q475.8188,357.7344 474.4907,356.0938 Q473.1782,354.4375 473.1782,351.3125 Q473.1782,348.1875 474.4907,346.5313 Q475.8188,344.875 478.3188,344.875 Q479.022,344.875 479.6626,345.0313 Q480.3188,345.1875 480.8813,345.4844 L480.8813,348.2031 Q480.2563,347.625 479.6626,347.3594 Q479.0688,347.0781 478.4438,347.0781 Q477.1001,347.0781 476.4126,348.1563 Q475.7251,349.2188 475.7251,351.3125 Q475.7251,353.4063 476.4126,354.4844 Q477.1001,355.5469 478.4438,355.5469 Q479.0688,355.5469 479.6626,355.2813 Q480.2563,355 480.8813,354.4219 L480.8813,357.1406 Z " fill="#000000"/><text fill="#000000" font-family="sans-serif" font-size="14" lengthAdjust="spacing" textLength="47.5439" x="498.4126" y="356.3467">Person</text><line style="stroke:#181818;stroke-width:0.5;" x1="418.5" x2="593.3691" y1="367.5" y2="367.5"/><rect fill="none" height="6" style="stroke:#C82930;stroke-width:1;" width="6" x="425.5" y="378.1484"/><text fill="#000000" font-family="sans-serif" font-size="14" lengthAdjust="spacing" textLength="111.9521" x="437.5" y="384.4951">personId: String</text><rect fill="none" height="6" style="stroke:#C82930;stroke-width:1;" width="6" x="425.5" y="394.4453"/><text fill="#000000" font-family="sans-serif" font-size="14" lengthAdjust="spacing" textLength="119.6084" x="437.5" y="400.792">firstName: String</text><rect fill="none" height="6" style="stroke:#C82930;stroke-width:1;" width="6" x="425.5" y="410.7422"/><text fill="#000000" font-family="sans-serif" font-size="14" lengthAdjust="spacing" textLength="117.5029" x="437.5" y="417.0889">lastName: String</text><rect fill="none" height="6" style="stroke:#C82930;stroke-width:1;" width="6" x="425.5" y="427.0391"/><text fill="#000000" font-family="sans-serif" font-size="14" lengthAdjust="spacing" textLength="123.7578" x="437.5" y="433.3857">dateOfBirth: Date</text><rect fill="none" height="6" style="stroke:#C82930;stroke-width:1;" width="6" x="425.5" y="443.3359"/><text fill="#000000" font-family="sans-serif" font-size="14" lengthAdjust="spacing" textLength="125.3506" x="437.5" y="449.6826">nationality: String</text><line style="stroke:#181818;stroke-width:0.5;" x1="418.5" x2="593.3691" y1="456.9844" y2="456.9844"/><ellipse cx="428.5" cy="470.6328" fill="#84BE84" rx="3" ry="3" style="stroke:#038048;stroke-width:1;"/><text fill="#000000" font-family="sans-serif" font-size="14" lengthAdjust="spacing" textLength="150.8691" x="437.5" y="473.9795">getFullName(): String</text><ellipse cx="428.5" cy="486.9297" fill="#84BE84" rx="3" ry="3" style="stroke:#038048;stroke-width:1;"/><text fill="#000000" font-family="sans-serif" font-size="14" lengthAdjust="spacing" textLength="88.4092" x="437.5" y="490.2764">getAge(): int</text></g><!--class Coach--><g class="entity" data-entity="Coach" data-source-line="13" data-uid="ent0003" id="entity_Coach"><rect fill="#F1F1F1" height="129.4844" rx="2.5" ry="2.5" style="stroke:#181818;stroke-width:0.5;" width="388.3662" x="7" y="632"/><ellipse cx="175.188" cy="648" fill="#ADD1B2" rx="11" ry="11" style="stroke:#181818;stroke-width:1;"/><path d="M178.1567,653.6406 Q177.5786,653.9375 176.938,654.0781 Q176.2974,654.2344 175.5942,654.2344 Q173.0942,654.2344 171.7661,652.5938 Q170.4536,650.9375 170.4536,647.8125 Q170.4536,644.6875 171.7661,643.0313 Q173.0942,641.375 175.5942,641.375 Q176.2974,641.375 176.938,641.5313 Q177.5942,641.6875 178.1567,641.9844 L178.1567,644.7031 Q177.5317,644.125 176.938,643.8594 Q176.3442,643.5781 175.7192,643.5781 Q174.3755,643.5781 173.688,644.6563 Q173.0005,645.7188 173.0005,647.8125 Q173.0005,649.9063 173.688,650.9844 Q174.3755,652.0469 175.7192,652.0469 Q176.3442,652.0469 176.938,651.7813 Q177.5317,651.5 178.1567,650.9219 L178.1567,653.6406 Z " fill="#000000"/><text fill="#000000" font-family="sans-serif" font-size="14" lengthAdjust="spacing" textLength="43.4902" x="195.688" y="652.8467">Coach</text><line style="stroke:#181818;stroke-width:0.5;" x1="8" x2="394.3662" y1="664" y2="664"/><rect fill="none" height="6" style="stroke:#C82930;stroke-width:1;" width="6" x="15" y="674.6484"/><text fill="#000000" font-family="sans-serif" font-size="14" lengthAdjust="spacing" textLength="77.7725" x="27" y="680.9951">role: String</text><rect fill="none" height="6" style="stroke:#C82930;stroke-width:1;" width="6" x="15" y="690.9453"/><text fill="#000000" font-family="sans-serif" font-size="14" lengthAdjust="spacing" textLength="144.0537" x="27" y="697.292">experienceYears: int</text><line style="stroke:#181818;stroke-width:0.5;" x1="8" x2="394.3662" y1="704.5938" y2="704.5938"/><ellipse cx="18" cy="718.2422" fill="#84BE84" rx="3" ry="3" style="stroke:#038048;stroke-width:1;"/><text fill="#000000" font-family="sans-serif" font-size="14" lengthAdjust="spacing" textLength="142.666" x="27" y="721.5889">coachTeam(): String</text><ellipse cx="18" cy="734.5391" fill="#84BE84" rx="3" ry="3" style="stroke:#038048;stroke-width:1;"/><text fill="#000000" font-family="sans-serif" font-size="14" lengthAdjust="spacing" textLength="245.3281" x="27" y="737.8857">updateTactics(tactics: String): void</text><ellipse cx="18" cy="750.8359" fill="#84BE84" rx="3" ry="3" style="stroke:#038048;stroke-width:1;"/><text fill="#000000" font-family="sans-serif" font-size="14" lengthAdjust="spacing" textLength="362.3662" x="27" y="754.1826">planTrainingSession(session: TrainingSession): void</text></g><!--class Player--><g class="entity" data-entity="Player" data-source-line="22" data-uid="ent0004" id="entity_Player"><rect fill="#F1F1F1" height="145.7813" rx="2.5" ry="2.5" style="stroke:#181818;stroke-width:0.5;" width="447.0254" x="430.5" y="623.5"/><ellipse cx="627.98" cy="639.5" fill="#ADD1B2" rx="11" ry="11" style="stroke:#181818;stroke-width:1;"/><path d="M630.9487,645.1406 Q630.3706,645.4375 629.73,645.5781 Q629.0894,645.7344 628.3862,645.7344 Q625.8862,645.7344 624.5581,644.0938 Q623.2456,642.4375 623.2456,639.3125 Q623.2456,636.1875 624.5581,634.5313 Q625.8862,632.875 628.3862,632.875 Q629.0894,632.875 629.73,633.0313 Q630.3862,633.1875 630.9487,633.4844 L630.9487,636.2031 Q630.3237,635.625 629.73,635.3594 Q629.1362,635.0781 628.5112,635.0781 Q627.1675,635.0781 626.48,636.1563 Q625.7925,637.2188 625.7925,639.3125 Q625.7925,641.4063 626.48,642.4844 Q627.1675,643.5469 628.5112,643.5469 Q629.1362,643.5469 629.73,643.2813 Q630.3237,643 630.9487,642.4219 L630.9487,645.1406 Z " fill="#000000"/><text fill="#000000" font-family="sans-serif" font-size="14" lengthAdjust="spacing" textLength="43.5654" x="648.48" y="644.3467">Player</text><line style="stroke:#181818;stroke-width:0.5;" x1="431.5" x2="876.5254" y1="655.5" y2="655.5"/><rect fill="none" height="6" style="stroke:#C82930;stroke-width:1;" width="6" x="438.5" y="666.1484"/><text fill="#000000" font-family="sans-serif" font-size="14" lengthAdjust="spacing" textLength="106.4014" x="450.5" y="672.4951">position: String</text><rect fill="none" height="6" style="stroke:#C82930;stroke-width:1;" width="6" x="438.5" y="682.4453"/><text fill="#000000" font-family="sans-serif" font-size="14" lengthAdjust="spacing" textLength="168.4375" x="450.5" y="688.792">contractStartDate: Date</text><rect fill="none" height="6" style="stroke:#C82930;stroke-width:1;" width="6" x="438.5" y="698.7422"/><text fill="#000000" font-family="sans-serif" font-size="14" lengthAdjust="spacing" textLength="160.8428" x="450.5" y="705.0889">contractEndDate: Date</text><line style="stroke:#181818;stroke-width:0.5;" x1="431.5" x2="876.5254" y1="712.3906" y2="712.3906"/><ellipse cx="441.5" cy="726.0391" fill="#84BE84" rx="3" ry="3" style="stroke:#038048;stroke-width:1;"/><text fill="#000000" font-family="sans-serif" font-size="14" lengthAdjust="spacing" textLength="133.1914" x="450.5" y="729.3857">playGame(): String</text><ellipse cx="441.5" cy="742.3359" fill="#84BE84" rx="3" ry="3" style="stroke:#038048;stroke-width:1;"/><text fill="#000000" font-family="sans-serif" font-size="14" lengthAdjust="spacing" textLength="421.0254" x="450.5" y="745.6826">renewContract(newEndDate: Date, newValue: Double): void</text><ellipse cx="441.5" cy="758.6328" fill="#84BE84" rx="3" ry="3" style="stroke:#038048;stroke-width:1;"/><text fill="#000000" font-family="sans-serif" font-size="14" lengthAdjust="spacing" textLength="182.3623" x="450.5" y="761.9795">getContractDuration(): int</text></g><!--class Staff--><g class="entity" data-entity="Staff" data-source-line="32" data-uid="ent0005" id="entity_Staff"><rect fill="#F1F1F1" height="113.1875" rx="2.5" ry="2.5" style="stroke:#181818;stroke-width:0.5;" width="271.7861" x="913" y="640"/><ellipse cx="1028.2368" cy="656" fill="#ADD1B2" rx="11" ry="11" style="stroke:#181818;stroke-width:1;"/><path d="M1031.2056,661.6406 Q1030.6274,661.9375 1029.9868,662.0781 Q1029.3462,662.2344 1028.6431,662.2344 Q1026.1431,662.2344 1024.8149,660.5938 Q1023.5024,658.9375 1023.5024,655.8125 Q1023.5024,652.6875 1024.8149,651.0313 Q1026.1431,649.375 1028.6431,649.375 Q1029.3462,649.375 1029.9868,649.5313 Q1030.6431,649.6875 1031.2056,649.9844 L1031.2056,652.7031 Q1030.5806,652.125 1029.9868,651.8594 Q1029.3931,651.5781 1028.7681,651.5781 Q1027.4243,651.5781 1026.7368,652.6563 Q1026.0493,653.7188 1026.0493,655.8125 Q1026.0493,657.9063 1026.7368,658.9844 Q1027.4243,660.0469 1028.7681,660.0469 Q1029.3931,660.0469 1029.9868,659.7813 Q1030.5806,659.5 1031.2056,658.9219 L1031.2056,661.6406 Z " fill="#000000"/><text fill="#000000" font-family="sans-serif" font-size="14" lengthAdjust="spacing" textLength="32.8125" x="1048.7368" y="660.8467">Staff</text><line style="stroke:#181818;stroke-width:0.5;" x1="914" x2="1183.7861" y1="672" y2="672"/><rect fill="none" height="6" style="stroke:#C82930;stroke-width:1;" width="6" x="921" y="682.6484"/><text fill="#000000" font-family="sans-serif" font-size="14" lengthAdjust="spacing" textLength="82.4824" x="933" y="688.9951">duty: String</text><rect fill="none" height="6" style="stroke:#C82930;stroke-width:1;" width="6" x="921" y="698.9453"/><text fill="#000000" font-family="sans-serif" font-size="14" lengthAdjust="spacing" textLength="150.2471" x="933" y="705.292">assignedTeam: Team</text><line style="stroke:#181818;stroke-width:0.5;" x1="914" x2="1183.7861" y1="712.5938" y2="712.5938"/><ellipse cx="924" cy="726.2422" fill="#84BE84" rx="3" ry="3" style="stroke:#038048;stroke-width:1;"/><text fill="#000000" font-family="sans-serif" font-size="14" lengthAdjust="spacing" textLength="101.7119" x="933" y="729.5889">assist(): String</text><ellipse cx="924" cy="742.5391" fill="#84BE84" rx="3" ry="3" style="stroke:#038048;stroke-width:1;"/><text fill="#000000" font-family="sans-serif" font-size="14" lengthAdjust="spacing" textLength="245.7861" x="933" y="745.8857">updateDuty(newDuty: String): void</text></g><!--class PersonFactory--><g class="entity" data-entity="PersonFactory" data-source-line="40" data-uid="ent0006" id="entity_PersonFactory"><rect fill="#F1F1F1" height="64.2969" rx="2.5" ry="2.5" style="stroke:#181818;stroke-width:0.5;" width="893.8154" x="59" y="88.5"/><ellipse cx="451.6733" cy="104.5" fill="#ADD1B2" rx="11" ry="11" style="stroke:#181818;stroke-width:1;"/><path d="M454.6421,110.1406 Q454.064,110.4375 453.4233,110.5781 Q452.7827,110.7344 452.0796,110.7344 Q449.5796,110.7344 448.2515,109.0938 Q446.939,107.4375 446.939,104.3125 Q446.939,101.1875 448.2515,99.5313 Q449.5796,97.875 452.0796,97.875 Q452.7827,97.875 453.4233,98.0313 Q454.0796,98.1875 454.6421,98.4844 L454.6421,101.2031 Q454.0171,100.625 453.4233,100.3594 Q452.8296,100.0781 452.2046,100.0781 Q450.8608,100.0781 450.1733,101.1563 Q449.4858,102.2188 449.4858,104.3125 Q449.4858,106.4063 450.1733,107.4844 Q450.8608,108.5469 452.2046,108.5469 Q452.8296,108.5469 453.4233,108.2813 Q454.0171,108 454.6421,107.4219 L454.6421,110.1406 Z " fill="#000000"/><text fill="#000000" font-family="sans-serif" font-size="14" lengthAdjust="spacing" textLength="99.9688" x="472.1733" y="109.3467">PersonFactory</text><line style="stroke:#181818;stroke-width:0.5;" x1="60" x2="951.8154" y1="120.5" y2="120.5"/><line style="stroke:#181818;stroke-width:0.5;" x1="60" x2="951.8154" y1="128.5" y2="128.5"/><ellipse cx="70" cy="142.1484" fill="#84BE84" rx="3" ry="3" style="stroke:#038048;stroke-width:1;"/><text fill="#000000" font-family="sans-serif" font-size="14" lengthAdjust="spacing" textLength="867.8154" x="79" y="145.4951">createPerson(role: String, firstName: String, lastName: String, birthDate: Date, nationality: String, extraInfo: String): Person</text></g><!--class Club--><g class="entity" data-entity="Club" data-source-line="45" data-uid="ent0007" id="entity_Club"><rect fill="#F1F1F1" height="227.2656" rx="2.5" ry="2.5" style="stroke:#181818;stroke-width:0.5;" width="282.7168" x="1070.5" y="7"/><ellipse cx="1191.896" cy="23" fill="#ADD1B2" rx="11" ry="11" style="stroke:#181818;stroke-width:1;"/><path d="M1194.8647,28.6406 Q1194.2866,28.9375 1193.646,29.0781 Q1193.0054,29.2344 1192.3022,29.2344 Q1189.8022,29.2344 1188.4741,27.5938 Q1187.1616,25.9375 1187.1616,22.8125 Q1187.1616,19.6875 1188.4741,18.0313 Q1189.8022,16.375 1192.3022,16.375 Q1193.0054,16.375 1193.646,16.5313 Q1194.3022,16.6875 1194.8647,16.9844 L1194.8647,19.7031 Q1194.2397,19.125 1193.646,18.8594 Q1193.0522,18.5781 1192.4272,18.5781 Q1191.0835,18.5781 1190.396,19.6563 Q1189.7085,20.7188 1189.7085,22.8125 Q1189.7085,24.9063 1190.396,25.9844 Q1191.0835,27.0469 1192.4272,27.0469 Q1193.0522,27.0469 1193.646,26.7813 Q1194.2397,26.5 1194.8647,25.9219 L1194.8647,28.6406 Z " fill="#000000"/><text fill="#000000" font-family="sans-serif" font-size="14" lengthAdjust="spacing" textLength="31.4248" x="1212.396" y="27.8467">Club</text><line style="stroke:#181818;stroke-width:0.5;" x1="1071.5" x2="1352.2168" y1="39" y2="39"/><rect fill="none" height="6" style="stroke:#C82930;stroke-width:1;" width="6" x="1078.5" y="49.6484"/><text fill="#000000" font-family="sans-serif" font-size="14" lengthAdjust="spacing" textLength="93.3105" x="1090.5" y="55.9951">clubId: String</text><rect fill="none" height="6" style="stroke:#C82930;stroke-width:1;" width="6" x="1078.5" y="65.9453"/><text fill="#000000" font-family="sans-serif" font-size="14" lengthAdjust="spacing" textLength="90.6514" x="1090.5" y="72.292">name: String</text><rect fill="none" height="6" style="stroke:#C82930;stroke-width:1;" width="6" x="1078.5" y="82.2422"/><text fill="#000000" font-family="sans-serif" font-size="14" lengthAdjust="spacing" textLength="137.8672" x="1090.5" y="88.5889">foundingDate: Date</text><rect fill="none" height="6" style="stroke:#C82930;stroke-width:1;" width="6" x="1078.5" y="98.5391"/><text fill="#000000" font-family="sans-serif" font-size="14" lengthAdjust="spacing" textLength="108.4111" x="1090.5" y="104.8857">budget: Double</text><rect fill="none" height="6" style="stroke:#C82930;stroke-width:1;" width="6" x="1078.5" y="114.8359"/><text fill="#000000" font-family="sans-serif" font-size="14" lengthAdjust="spacing" textLength="98.4033" x="1090.5" y="121.1826">league: String</text><line style="stroke:#181818;stroke-width:0.5;" x1="1071.5" x2="1352.2168" y1="128.4844" y2="128.4844"/><rect fill="#F24D5C" height="6" style="stroke:#C82930;stroke-width:1;" width="6" x="1078.5" y="139.1328"/><text fill="#000000" font-family="sans-serif" font-size="14" lengthAdjust="spacing" textLength="153.2207" x="1090.5" y="145.4795">stadiumId: String (FK)</text><ellipse cx="1081.5" cy="158.4297" fill="#84BE84" rx="3" ry="3" style="stroke:#038048;stroke-width:1;"/><text fill="#000000" font-family="sans-serif" font-size="14" lengthAdjust="spacing" textLength="157.2402" x="1090.5" y="161.7764">manageBudget(): void</text><ellipse cx="1081.5" cy="174.7266" fill="#84BE84" rx="3" ry="3" style="stroke:#038048;stroke-width:1;"/><text fill="#000000" font-family="sans-serif" font-size="14" lengthAdjust="spacing" textLength="256.7168" x="1090.5" y="178.0732">signSponsor(sponsor: Sponsor): void</text><ellipse cx="1081.5" cy="191.0234" fill="#84BE84" rx="3" ry="3" style="stroke:#038048;stroke-width:1;"/><text fill="#000000" font-family="sans-serif" font-size="14" lengthAdjust="spacing" textLength="177.0713" x="1090.5" y="194.3701">getTeams(): List&lt;Team&gt;</text><ellipse cx="1081.5" cy="207.3203" fill="#84BE84" rx="3" ry="3" style="stroke:#038048;stroke-width:1;"/><text fill="#000000" font-family="sans-serif" font-size="14" lengthAdjust="spacing" textLength="232.0938" x="1090.5" y="210.667">assignCoach(coach: Coach): void</text><ellipse cx="1081.5" cy="223.6172" fill="#84BE84" rx="3" ry="3" style="stroke:#038048;stroke-width:1;"/><text fill="#000000" font-family="sans-serif" font-size="14" lengthAdjust="spacing" textLength="249.5391" x="1090.5" y="226.9639">promotePlayer(player: Player): void</text></g><!--class Team--><g class="entity" data-entity="Team" data-source-line="60" data-uid="ent0008" id="entity_Team"><rect fill="#F1F1F1" height="210.9688" rx="2.5" ry="2.5" style="stroke:#181818;stroke-width:0.5;" width="367.4619" x="1111.5" y="311"/><ellipse cx="1271.29" cy="327" fill="#ADD1B2" rx="11" ry="11" style="stroke:#181818;stroke-width:1;"/><path d="M1274.2588,332.6406 Q1273.6807,332.9375 1273.04,333.0781 Q1272.3994,333.2344 1271.6963,333.2344 Q1269.1963,333.2344 1267.8682,331.5938 Q1266.5557,329.9375 1266.5557,326.8125 Q1266.5557,323.6875 1267.8682,322.0313 Q1269.1963,320.375 1271.6963,320.375 Q1272.3994,320.375 1273.04,320.5313 Q1273.6963,320.6875 1274.2588,320.9844 L1274.2588,323.7031 Q1273.6338,323.125 1273.04,322.8594 Q1272.4463,322.5781 1271.8213,322.5781 Q1270.4775,322.5781 1269.79,323.6563 Q1269.1025,324.7188 1269.1025,326.8125 Q1269.1025,328.9063 1269.79,329.9844 Q1270.4775,331.0469 1271.8213,331.0469 Q1272.4463,331.0469 1273.04,330.7813 Q1273.6338,330.5 1274.2588,329.9219 L1274.2588,332.6406 Z " fill="#000000"/><text fill="#000000" font-family="sans-serif" font-size="14" lengthAdjust="spacing" textLength="39.3818" x="1291.79" y="331.8467">Team</text><line style="stroke:#181818;stroke-width:0.5;" x1="1112.5" x2="1477.9619" y1="343" y2="343"/><rect fill="none" height="6" style="stroke:#C82930;stroke-width:1;" width="6" x="1119.5" y="353.6484"/><text fill="#000000" font-family="sans-serif" font-size="14" lengthAdjust="spacing" textLength="100.2832" x="1131.5" y="359.9951">teamId: String</text><rect fill="none" height="6" style="stroke:#C82930;stroke-width:1;" width="6" x="1119.5" y="369.9453"/><text fill="#000000" font-family="sans-serif" font-size="14" lengthAdjust="spacing" textLength="98.4033" x="1131.5" y="376.292">league: String</text><rect fill="none" height="6" style="stroke:#C82930;stroke-width:1;" width="6" x="1119.5" y="386.2422"/><text fill="#000000" font-family="sans-serif" font-size="14" lengthAdjust="spacing" textLength="104.5215" x="1131.5" y="392.5889">division: String</text><rect fill="none" height="6" style="stroke:#C82930;stroke-width:1;" width="6" x="1119.5" y="402.5391"/><text fill="#000000" font-family="sans-serif" font-size="14" lengthAdjust="spacing" textLength="90.6514" x="1131.5" y="408.8857">name: String</text><rect fill="none" height="6" style="stroke:#C82930;stroke-width:1;" width="6" x="1119.5" y="418.8359"/><text fill="#000000" font-family="sans-serif" font-size="14" lengthAdjust="spacing" textLength="151.9697" x="1131.5" y="425.1826">players: List&lt;Player&gt;</text><line style="stroke:#181818;stroke-width:0.5;" x1="1112.5" x2="1477.9619" y1="432.4844" y2="432.4844"/><rect fill="#F24D5C" height="6" style="stroke:#C82930;stroke-width:1;" width="6" x="1119.5" y="443.1328"/><text fill="#000000" font-family="sans-serif" font-size="14" lengthAdjust="spacing" textLength="125.918" x="1131.5" y="449.4795">clubId: String (FK)</text><ellipse cx="1122.5" cy="462.4297" fill="#84BE84" rx="3" ry="3" style="stroke:#038048;stroke-width:1;"/><text fill="#000000" font-family="sans-serif" font-size="14" lengthAdjust="spacing" textLength="216.3779" x="1131.5" y="465.7764">addPlayer(player: Player): void</text><ellipse cx="1122.5" cy="478.7266" fill="#84BE84" rx="3" ry="3" style="stroke:#038048;stroke-width:1;"/><text fill="#000000" font-family="sans-serif" font-size="14" lengthAdjust="spacing" textLength="243.4961" x="1131.5" y="482.0732">removePlayer(player: Player): void</text><ellipse cx="1122.5" cy="495.0234" fill="#84BE84" rx="3" ry="3" style="stroke:#038048;stroke-width:1;"/><text fill="#000000" font-family="sans-serif" font-size="14" lengthAdjust="spacing" textLength="341.4619" x="1131.5" y="498.3701">scheduleTraining(session: TrainingSession): void</text><ellipse cx="1122.5" cy="511.3203" fill="#84BE84" rx="3" ry="3" style="stroke:#038048;stroke-width:1;"/><text fill="#000000" font-family="sans-serif" font-size="14" lengthAdjust="spacing" textLength="200.5459" x="1131.5" y="514.667">assignStaff(staff: Staff): void</text></g><!--class Match--><g class="entity" data-entity="Match" data-source-line="74" data-uid="ent0009" id="entity_Match"><rect fill="#F1F1F1" height="194.6719" rx="2.5" ry="2.5" style="stroke:#181818;stroke-width:0.5;" width="333.002" x="1220.5" y="599"/><ellipse cx="1361.3921" cy="615" fill="#ADD1B2" rx="11" ry="11" style="stroke:#181818;stroke-width:1;"/><path d="M1364.3608,620.6406 Q1363.7827,620.9375 1363.1421,621.0781 Q1362.5015,621.2344 1361.7983,621.2344 Q1359.2983,621.2344 1357.9702,619.5938 Q1356.6577,617.9375 1356.6577,614.8125 Q1356.6577,611.6875 1357.9702,610.0313 Q1359.2983,608.375 1361.7983,608.375 Q1362.5015,608.375 1363.1421,608.5313 Q1363.7983,608.6875 1364.3608,608.9844 L1364.3608,611.7031 Q1363.7358,611.125 1363.1421,610.8594 Q1362.5483,610.5781 1361.9233,610.5781 Q1360.5796,610.5781 1359.8921,611.6563 Q1359.2046,612.7188 1359.2046,614.8125 Q1359.2046,616.9063 1359.8921,617.9844 Q1360.5796,619.0469 1361.9233,619.0469 Q1362.5483,619.0469 1363.1421,618.7813 Q1363.7358,618.5 1364.3608,617.9219 L1364.3608,620.6406 Z " fill="#000000"/><text fill="#000000" font-family="sans-serif" font-size="14" lengthAdjust="spacing" textLength="42.7178" x="1381.8921" y="619.8467">Match</text><line style="stroke:#181818;stroke-width:0.5;" x1="1221.5" x2="1552.502" y1="631" y2="631"/><rect fill="none" height="6" style="stroke:#C82930;stroke-width:1;" width="6" x="1228.5" y="641.6484"/><text fill="#000000" font-family="sans-serif" font-size="14" lengthAdjust="spacing" textLength="108.2402" x="1240.5" y="647.9951">matchId: String</text><rect fill="none" height="6" style="stroke:#C82930;stroke-width:1;" width="6" x="1228.5" y="657.9453"/><text fill="#000000" font-family="sans-serif" font-size="14" lengthAdjust="spacing" textLength="127.6201" x="1240.5" y="664.292">homeTeam: Team</text><rect fill="none" height="6" style="stroke:#C82930;stroke-width:1;" width="6" x="1228.5" y="674.2422"/><text fill="#000000" font-family="sans-serif" font-size="14" lengthAdjust="spacing" textLength="124.8242" x="1240.5" y="680.5889">awayTeam: Team</text><rect fill="none" height="6" style="stroke:#C82930;stroke-width:1;" width="6" x="1228.5" y="690.5391"/><text fill="#000000" font-family="sans-serif" font-size="14" lengthAdjust="spacing" textLength="120.3672" x="1240.5" y="696.8857">matchDate: Date</text><rect fill="none" height="6" style="stroke:#C82930;stroke-width:1;" width="6" x="1228.5" y="706.8359"/><text fill="#000000" font-family="sans-serif" font-size="14" lengthAdjust="spacing" textLength="106.627" x="1240.5" y="713.1826">homeScore: int</text><rect fill="none" height="6" style="stroke:#C82930;stroke-width:1;" width="6" x="1228.5" y="723.1328"/><text fill="#000000" font-family="sans-serif" font-size="14" lengthAdjust="spacing" textLength="103.8311" x="1240.5" y="729.4795">awayScore: int</text><line style="stroke:#181818;stroke-width:0.5;" x1="1221.5" x2="1552.502" y1="736.7813" y2="736.7813"/><ellipse cx="1231.5" cy="750.4297" fill="#84BE84" rx="3" ry="3" style="stroke:#038048;stroke-width:1;"/><text fill="#000000" font-family="sans-serif" font-size="14" lengthAdjust="spacing" textLength="125.043" x="1240.5" y="753.7764">startMatch(): void</text><ellipse cx="1231.5" cy="766.7266" fill="#84BE84" rx="3" ry="3" style="stroke:#038048;stroke-width:1;"/><text fill="#000000" font-family="sans-serif" font-size="14" lengthAdjust="spacing" textLength="307.002" x="1240.5" y="770.0732">score(homeScore: int, awayScore: int): void</text><ellipse cx="1231.5" cy="783.0234" fill="#84BE84" rx="3" ry="3" style="stroke:#038048;stroke-width:1;"/><text fill="#000000" font-family="sans-serif" font-size="14" lengthAdjust="spacing" textLength="155.4697" x="1240.5" y="786.3701">displayResult(): String</text></g><!--class Sponsor--><g class="entity" data-entity="Sponsor" data-source-line="87" data-uid="ent0010" id="entity_Sponsor"><rect fill="#F1F1F1" height="210.9688" rx="2.5" ry="2.5" style="stroke:#181818;stroke-width:0.5;" width="447.0254" x="629.5" y="311"/><ellipse cx="820.3491" cy="327" fill="#ADD1B2" rx="11" ry="11" style="stroke:#181818;stroke-width:1;"/><path d="M823.3179,332.6406 Q822.7397,332.9375 822.0991,333.0781 Q821.4585,333.2344 820.7554,333.2344 Q818.2554,333.2344 816.9272,331.5938 Q815.6147,329.9375 815.6147,326.8125 Q815.6147,323.6875 816.9272,322.0313 Q818.2554,320.375 820.7554,320.375 Q821.4585,320.375 822.0991,320.5313 Q822.7554,320.6875 823.3179,320.9844 L823.3179,323.7031 Q822.6929,323.125 822.0991,322.8594 Q821.5054,322.5781 820.8804,322.5781 Q819.5366,322.5781 818.8491,323.6563 Q818.1616,324.7188 818.1616,326.8125 Q818.1616,328.9063 818.8491,329.9844 Q819.5366,331.0469 820.8804,331.0469 Q821.5054,331.0469 822.0991,330.7813 Q822.6929,330.5 823.3179,329.9219 L823.3179,332.6406 Z " fill="#000000"/><text fill="#000000" font-family="sans-serif" font-size="14" lengthAdjust="spacing" textLength="56.8271" x="840.8491" y="331.8467">Sponsor</text><line style="stroke:#181818;stroke-width:0.5;" x1="630.5" x2="1075.5254" y1="343" y2="343"/><rect fill="none" height="6" style="stroke:#C82930;stroke-width:1;" width="6" x="637.5" y="353.6484"/><text fill="#000000" font-family="sans-serif" font-size="14" lengthAdjust="spacing" textLength="119.1982" x="649.5" y="359.9951">sponsorId: String</text><rect fill="none" height="6" style="stroke:#C82930;stroke-width:1;" width="6" x="637.5" y="369.9453"/><text fill="#000000" font-family="sans-serif" font-size="14" lengthAdjust="spacing" textLength="90.6514" x="649.5" y="376.292">name: String</text><rect fill="none" height="6" style="stroke:#C82930;stroke-width:1;" width="6" x="637.5" y="386.2422"/><text fill="#000000" font-family="sans-serif" font-size="14" lengthAdjust="spacing" textLength="150.8828" x="649.5" y="392.5889">contactPerson: String</text><rect fill="none" height="6" style="stroke:#C82930;stroke-width:1;" width="6" x="637.5" y="402.5391"/><text fill="#000000" font-family="sans-serif" font-size="14" lengthAdjust="spacing" textLength="94.7598" x="649.5" y="408.8857">phone: String</text><rect fill="none" height="6" style="stroke:#C82930;stroke-width:1;" width="6" x="637.5" y="418.8359"/><text fill="#000000" font-family="sans-serif" font-size="14" lengthAdjust="spacing" textLength="89.5576" x="649.5" y="425.1826">email: String</text><rect fill="none" height="6" style="stroke:#C82930;stroke-width:1;" width="6" x="637.5" y="435.1328"/><text fill="#000000" font-family="sans-serif" font-size="14" lengthAdjust="spacing" textLength="156.4541" x="649.5" y="441.4795">contractValue: Double</text><rect fill="none" height="6" style="stroke:#C82930;stroke-width:1;" width="6" x="637.5" y="451.4297"/><text fill="#000000" font-family="sans-serif" font-size="14" lengthAdjust="spacing" textLength="168.4375" x="649.5" y="457.7764">contractStartDate: Date</text><rect fill="none" height="6" style="stroke:#C82930;stroke-width:1;" width="6" x="637.5" y="467.7266"/><text fill="#000000" font-family="sans-serif" font-size="14" lengthAdjust="spacing" textLength="160.8428" x="649.5" y="474.0732">contractEndDate: Date</text><line style="stroke:#181818;stroke-width:0.5;" x1="630.5" x2="1075.5254" y1="481.375" y2="481.375"/><ellipse cx="640.5" cy="495.0234" fill="#84BE84" rx="3" ry="3" style="stroke:#038048;stroke-width:1;"/><text fill="#000000" font-family="sans-serif" font-size="14" lengthAdjust="spacing" textLength="421.0254" x="649.5" y="498.3701">renewContract(newEndDate: Date, newValue: Double): void</text><ellipse cx="640.5" cy="511.3203" fill="#84BE84" rx="3" ry="3" style="stroke:#038048;stroke-width:1;"/><text fill="#000000" font-family="sans-serif" font-size="14" lengthAdjust="spacing" textLength="182.3623" x="649.5" y="514.667">getContractDuration(): int</text></g><!--reverse link Person to Coach--><g class="link" data-entity-1="Person" data-entity-2="Coach" data-source-line="101" data-uid="lnk11" id="link_Person_Coach"><path codeLine="101" d="M404.886,509.6645 C358.076,552.3245 314.59,591.97 270.82,631.86" fill="none" id="Person-backto-Coach" style="stroke:#181818;stroke-width:1;"/><polygon fill="none" points="418.19,497.54,400.8445,505.2298,408.9275,514.0992,418.19,497.54" style="stroke:#181818;stroke-width:1;"/></g><!--reverse link Person to Player--><g class="link" data-entity-1="Person" data-entity-2="Player" data-source-line="102" data-uid="lnk12" id="link_Person_Player"><path codeLine="102" d="M557.0679,513.4291 C578.1579,553.0491 594.97,584.62 615.48,623.14" fill="none" id="Person-backto-Player" style="stroke:#181818;stroke-width:1;"/><polygon fill="none" points="548.61,497.54,551.7715,516.2484,562.3643,510.6098,548.61,497.54" style="stroke:#181818;stroke-width:1;"/></g><!--reverse link Person to Staff--><g class="link" data-entity-1="Person" data-entity-2="Staff" data-source-line="103" data-uid="lnk13" id="link_Person_Staff"><path codeLine="103" d="M597.7683,509.921 C606.8183,518.341 602.9,514.36 612,522 C639.58,545.16 644.53,555.71 678,569 C768.48,604.94 803.49,565.75 895,599 C922.43,608.97 950.14,624.33 974.35,639.89" fill="none" id="Person-backto-Staff" style="stroke:#181818;stroke-width:1;"/><polygon fill="none" points="584.59,497.66,593.6814,514.3137,601.8553,505.5282,584.59,497.66" style="stroke:#181818;stroke-width:1;"/></g><!--link PersonFactory to Person--><g class="link" data-entity-1="PersonFactory" data-entity-2="Person" data-source-line="104" data-uid="lnk14" id="link_PersonFactory_Person"><path codeLine="104" d="M506,152.68 C506,195.76 506,268.98 506,329.22" fill="none" id="PersonFactory-to-Person" style="stroke:#181818;stroke-width:1;stroke-dasharray:7.0,7.0;"/><polygon fill="#181818" points="506,335.22,510,326.22,506,330.22,502,326.22,506,335.22" style="stroke:#181818;stroke-width:1;"/><text fill="#000000" font-family="sans-serif" font-size="13" lengthAdjust="spacing" textLength="48.3247" x="507" y="277.0669">creates</text></g><!--reverse link Club to Team--><g class="link" data-entity-1="Club" data-entity-2="Team" data-source-line="105" data-uid="lnk15" id="link_Club_Team"><path codeLine="105" d="M1247.112,245.8781 C1254.202,270.9781 1258.42,285.93 1265.41,310.7" fill="none" id="Club-backto-Team" style="stroke:#181818;stroke-width:1;"/><polygon fill="#181818" points="1243.85,234.33,1241.6316,241.1914,1247.112,245.8781,1249.3304,239.0167,1243.85,234.33" style="stroke:#181818;stroke-width:1;"/><text fill="#000000" font-family="sans-serif" font-size="13" lengthAdjust="spacing" textLength="59.8584" x="1256" y="277.0669">manages</text><text fill="#000000" font-family="sans-serif" font-size="13" lengthAdjust="spacing" textLength="8.271" x="1237.6519" y="254.1653">1</text><text fill="#000000" font-family="sans-serif" font-size="13" lengthAdjust="spacing" textLength="23.0356" x="1239.5059" y="299.8063">0..*</text></g><!--reverse link Team to Player--><g class="link" data-entity-1="Team" data-entity-2="Player" data-source-line="106" data-uid="lnk16" id="link_Team_Player"><path codeLine="106" d="M1100.5134,519.0923 C1094.6734,521.8423 1099.73,519.4 1094,522 C1007.99,560.95 983.85,564.4 896,599 C876.01,606.87 855.11,615.15 834.32,623.4" fill="none" id="Team-backto-Player" style="stroke:#181818;stroke-width:1;"/><polygon fill="#181818" points="1111.37,513.98,1104.2376,512.9173,1100.5134,519.0923,1107.6458,520.155,1111.37,513.98" style="stroke:#181818;stroke-width:1;"/><text fill="#000000" font-family="sans-serif" font-size="13" lengthAdjust="spacing" textLength="53.8726" x="1023" y="565.0669">includes</text><text fill="#000000" font-family="sans-serif" font-size="13" lengthAdjust="spacing" textLength="8.271" x="1095.4503" y="514.8464">1</text><text fill="#000000" font-family="sans-serif" font-size="13" lengthAdjust="spacing" textLength="23.0356" x="827.9387" y="612.5501">0..*</text></g><!--reverse link Team to Match--><g class="link" data-entity-1="Team" data-entity-2="Match" data-source-line="107" data-uid="lnk17" id="link_Team_Match"><path codeLine="107" d="M1284.331,533.9907 C1285.241,550.0007 1287.05,554.15 1292,569 C1295.39,579.16 1299.95,589.16 1305.25,598.82" fill="none" id="Team-backto-Match" style="stroke:#181818;stroke-width:1;"/><polygon fill="#181818" points="1283.65,522.01,1279.9969,528.2273,1284.331,533.9907,1287.984,527.7733,1283.65,522.01" style="stroke:#181818;stroke-width:1;"/><text fill="#000000" font-family="sans-serif" font-size="13" lengthAdjust="spacing" textLength="50.2798" x="1293" y="565.0669">plays in</text><text fill="#000000" font-family="sans-serif" font-size="13" lengthAdjust="spacing" textLength="8.271" x="1274.564" y="542.0287">1</text><text fill="#000000" font-family="sans-serif" font-size="13" lengthAdjust="spacing" textLength="23.0356" x="1275.1118" y="587.8517">0..*</text></g><!--reverse link Match to Team--><g class="link" data-entity-1="Match" data-entity-2="Team" data-source-line="108" data-uid="lnk18" id="link_Match_Team"><path codeLine="108" d="M1359.0527,587.4162 C1354.5727,571.6362 1353,567.07 1348,552 C1344.76,542.23 1341.2,532.15 1337.5,522.09" fill="none" id="Match-backto-Team" style="stroke:#181818;stroke-width:1;"/><polygon fill="#181818" points="1362.33,598.96,1364.5393,592.0957,1359.0527,587.4162,1356.8434,594.2805,1362.33,598.96" style="stroke:#181818;stroke-width:1;"/><text fill="#000000" font-family="sans-serif" font-size="13" lengthAdjust="spacing" textLength="53.5742" x="1353" y="565.0669">involves</text><text fill="#000000" font-family="sans-serif" font-size="13" lengthAdjust="spacing" textLength="8.271" x="1352.1453" y="588.0024">1</text><text fill="#000000" font-family="sans-serif" font-size="13" lengthAdjust="spacing" textLength="8.271" x="1332.2003" y="542.1143">2</text></g><!--reverse link Club to Sponsor--><g class="link" data-entity-1="Club" data-entity-2="Sponsor" data-source-line="109" data-uid="lnk19" id="link_Club_Sponsor"><path codeLine="109" d="M1065.1959,241.723 C1034.4359,266.913 1011.21,285.93 980.86,310.79" fill="none" id="Club-backto-Sponsor" style="stroke:#181818;stroke-width:1;"/><polygon fill="#181818" points="1074.48,234.12,1067.3036,234.8268,1065.1959,241.723,1072.3723,241.0162,1074.48,234.12" style="stroke:#181818;stroke-width:1;"/><text fill="#000000" font-family="sans-serif" font-size="13" lengthAdjust="spacing" textLength="33.6489" x="1033" y="277.0669">signs</text><text fill="#000000" font-family="sans-serif" font-size="13" lengthAdjust="spacing" textLength="8.271" x="1056.9902" y="254.3202">1</text><text fill="#000000" font-family="sans-serif" font-size="13" lengthAdjust="spacing" textLength="23.0356" x="966.0419" y="299.9026">0..*</text></g><!--reverse link Team to Staff--><g class="link" data-entity-1="Team" data-entity-2="Staff" data-source-line="110" data-uid="lnk20" id="link_Team_Staff"><path codeLine="110" d="M1194.3981,531.1871 C1158.9881,571.2071 1127.95,606.28 1098.14,639.97" fill="none" id="Team-backto-Staff" style="stroke:#181818;stroke-width:1;"/><polygon fill="#181818" points="1202.35,522.2,1195.3784,524.0429,1194.3981,531.1871,1201.3698,529.3442,1202.35,522.2" style="stroke:#181818;stroke-width:1;"/><text fill="#000000" font-family="sans-serif" font-size="13" lengthAdjust="spacing" textLength="48.3882" x="1173" y="565.0669">assigns</text><text fill="#000000" font-family="sans-serif" font-size="13" lengthAdjust="spacing" textLength="8.271" x="1187.8499" y="541.878">1</text><text fill="#000000" font-family="sans-serif" font-size="13" lengthAdjust="spacing" textLength="23.0356" x="1079.9786" y="628.8295">0..*</text></g><!--SRC=[jLPBJnin4Bxlhx1oOO4aQdjS8QH2IeKeBI8HKe_EsjbOxDgH7w4HxN_l-1NipGA7gfUiPpnZptmptpX7w8QsM2625PReZaebU563HWK1FHS8JT362TUaGdCj6M-SSiMaqjznHpCjE1yg2TRqn-g2IRskq0m4f-LOCy5no_GkiJv53TLNfctjAULnV-TpuvICw-9FKHo51BIHXcEEBWMkro43jmu9ID7c4T5Va1EZlAO_APRA7sYlgAtNWkAkTxNPs2GMkDQiLgNstsW1fbl1Y3FSj9Wl96OSz7Eg5AHOAl-jK6yZ-WraSjVY7PMn64w8nH2AQNTQaayjk9OGr5nZgIt22SvnxmidsOwBTVVr46P9ENsw35ubh3FFCGBD0swDbOLPjZHD7qeKFMT6kWg_KIy8TxKAIRfro96Oh2Sc20nOmocnbG4OuTVTPjLA3vPg1aVOs6V9KGDu-pw_Wd25tA4TvWtgA6yQ2EyH0emRjrIl1Scu4RUUVTz82fVwdJ9jj_4XKSO7B1cZfIL71l8XEyRGje3iDL-99AD0soIdozOi8mbW6J2jOTcZCEyJTIKC9o3qEcXf2DGrbjlpdEB6vCvAOy9Czt87AgzkZXqw7UQueHVkc39j5rlL-KPm9MIf_1Uy_QBNLhReoZf_WvAVMUbytmCDTsml7NihJ_sCb59q0ihZU5HktASAj1fe2jTV7a2x301gMFO07421i2rJ1_JCi8-u31J0XwP2aZx0a2OXRuRlYTk9BNtNJDLhIanBupHwTpwzmEn8MYhxMtd63i1tY_L-2hjr0B2pwnw2Qz7HZDJ0zIUywwcSPwyfhUUy5fB6uUqzCzMfRKgfNH1vtrchCZzYtFDFxGbJ5izxgaoRpfiawz2rSPfvAMGUMliz-jb93LF5CphlYxNWlHUimwmTV0EosVmFhyF_V0RkBMGCOSXNeaSh5E4VnzdloIIyuwacl8UfoZyU-J2UJi_ZNvSgp6HLk24u-ZX29-0r-Z2Tdemyhwimc5JXn9v9U7LjrC1VyegLR_3ACLU1QU4LUwjF-xiOtufs-qeyiLygDnA7h_8lP1MegFu2]--></g></svg>